# xmcd
#
# Track frame offsets:
#	150
#	26097
#	49887
#	71492
#	87995
#	106715
#	125320
#	147187
#	171855
#	195635
#	211890
#	229295
#	246602
#	258017
#	280427
#	292980
#
# Disc length: 4226 seconds
#
# Revision: 12
# Processed by: cddbd v1.5.2PL0 Copyright (c) Steve Scherf et al.
# Submitted via: EasyCDDAExtractor 15.3.0.1
#
DISCID=ed108010
DTITLE=La Ley - MTV Unplugged
DYEAR=2001
DGENRE=Latin
TTITLE0=Animal
TTITLE1=Dia Cero
TTITLE2=Mentira
TTITLE3=Prisioneros De La Piel
TTITLE4=Hombre
TTITLE5=Krazyworld
TTITLE6=Intenta Amar
TTITLE7=El Duelo
TTITLE8=The Corridor
TTITLE9=Aqui
TTITLE10=Delirando
TTITLE11=Cielo Market
TTITLE12=La Luna
TTITLE13=Fuera De Mi
TTITLE14=Paraiso
TTITLE15=Al Final
EXTD=
EXTT0=
EXTT1=
EXTT2=
EXTT3=
EXTT4=
EXTT5=
EXTT6=
EXTT7=
EXTT8=
EXTT9=
EXTT10=
EXTT11=
EXTT12=
EXTT13=
EXTT14=
EXTT15=
PLAYORDER=
